<svg width="200" height="200" viewBox="0 0 200 200" xmlns="http://www.w3.org/2000/svg">
  <!-- Background circle -->
  <circle cx="100" cy="100" r="95" fill="#f8f9ff" stroke="#e6e8ff" stroke-width="2"/>
  
  <!-- Medical cross symbol -->
  <g transform="translate(100, 65)">
    <!-- Vertical bar -->
    <rect x="-8" y="-15" width="16" height="30" fill="#6366f1" rx="2"/>
    <!-- Horizontal bar -->
    <rect x="-12" y="-4" width="24" height="8" fill="#6366f1" rx="2"/>
  </g>
  
  <!-- Data connection lines and nodes -->
  <g stroke="#10b981" stroke-width="2" fill="#10b981">
    <!-- Left side connections -->
    <line x1="50" y1="95" x2="70" y2="85"/>
    <line x1="70" y1="85" x2="85" y2="75"/>
    <circle cx="50" cy="95" r="3"/>
    <circle cx="70" cy="85" r="3"/>
    <circle cx="85" cy="75" r="3"/>
    
    <!-- Right side connections -->
    <line x1="115" y1="75" x2="130" y2="85"/>
    <line x1="130" y1="85" x2="150" y2="95"/>
    <circle cx="115" cy="75" r="3"/>
    <circle cx="130" cy="85" r="3"/>
    <circle cx="150" cy="95" r="3"/>
    
    <!-- Bottom connections -->
    <line x1="75" y1="110" x2="90" y2="120"/>
    <line x1="110" y1="120" x2="125" y2="110"/>
    <circle cx="75" cy="110" r="3"/>
    <circle cx="90" cy="120" r="3"/>
    <circle cx="110" cy="120" r="3"/>
    <circle cx="125" cy="110" r="3"/>
  </g>
  
  <!-- Analytics curve -->
  <path d="M 60 140 Q 80 125 100 130 Q 120 135 140 120" 
        stroke="#06b6d4" stroke-width="3" fill="none" stroke-linecap="round"/>
  <circle cx="60" cy="140" r="4" fill="#06b6d4"/>
  <circle cx="100" cy="130" r="4" fill="#06b6d4"/>
  <circle cx="140" cy="120" r="4" fill="#06b6d4"/>
  
  <!-- Company name -->
  <text x="100" y="165" text-anchor="middle" fill="#6366f1" font-family="Arial, sans-serif" font-size="16" font-weight="bold">
    ClinicTrends
  </text>
  <text x="100" y="180" text-anchor="middle" fill="#06b6d4" font-family="Arial, sans-serif" font-size="14" font-weight="bold">
    AI
  </text>
</svg>